<?xml version="1.0" standalone="no"?>
<!DOCTYPE svg PUBLIC "-//W3C//DTD SVG 20010904//EN"
 "http://www.w3.org/TR/2001/REC-SVG-20010904/DTD/svg10.dtd">
<svg version="1.0" xmlns="http://www.w3.org/2000/svg"
 width="300.000000pt" height="304.000000pt" viewBox="0 0 300.000000 304.000000"
 preserveAspectRatio="xMidYMid meet">
<metadata>
Created by potrace 1.10, written by Peter Selinger 2001-2011
</metadata>
<g transform="translate(0.000000,304.000000) scale(0.100000,-0.100000)"
fill="#000000" stroke="none">
<path d="M1307 2774 c-16 -8 -26 -21 -23 -27 18 -44 57 -180 52 -185 -3 -3
-16 4 -29 15 -40 37 -171 123 -187 123 -8 0 -27 -20 -40 -45 -31 -58 -26 -67
71 -117 97 -51 126 -81 145 -146 14 -49 14 -55 0 -71 -11 -12 -16 -37 -16 -77
l-1 -59 -81 -60 c-124 -91 -220 -186 -251 -247 -31 -64 -57 -184 -57 -271 0
-84 38 -212 81 -271 33 -47 134 -127 177 -140 64 -21 -29 -201 -122 -236 -67
-25 -155 40 -154 114 0 27 -5 44 -18 53 -10 7 -24 35 -31 63 -10 41 -10 53 2
77 8 15 15 36 15 45 0 27 -49 78 -75 78 -29 0 -55 -34 -55 -71 0 -30 34 -79
55 -79 8 0 16 -8 18 -17 30 -106 11 -126 -72 -80 -99 54 -132 97 -96 127 23
19 18 64 -10 94 -28 30 -55 33 -78 9 -38 -43 -29 -105 19 -123 13 -5 24 -18
24 -28 0 -33 31 -62 110 -102 46 -23 87 -52 100 -70 12 -16 29 -30 39 -30 18
0 91 -69 91 -86 0 -15 -56 -54 -79 -54 -46 0 -68 -62 -33 -93 41 -37 99 -6 87
46 -3 12 1 29 8 38 19 25 73 49 110 49 19 0 49 10 68 23 19 13 39 26 45 29 7
5 10 -33 10 -120 -1 -151 8 -175 100 -262 l57 -54 -14 -76 c-8 -41 -14 -113
-14 -159 0 -82 -1 -84 -32 -110 -57 -48 -33 -77 34 -42 58 29 68 45 49 73 -21
29 -21 127 0 219 14 62 18 69 40 69 35 0 29 24 -13 53 -63 42 -130 110 -153
155 -20 39 -22 54 -18 145 4 72 13 130 33 197 16 52 30 96 31 98 1 2 23 0 48
-3 41 -7 46 -10 46 -34 0 -14 6 -38 14 -52 11 -22 11 -29 0 -44 -30 -41 -7
-105 37 -105 27 0 26 -46 -1 -55 -48 -15 -29 -125 23 -125 43 1 60 24 53 72
-10 62 -10 139 -1 165 6 18 0 30 -30 60 -21 21 -39 50 -42 67 l-5 31 104 2
c56 2 115 5 130 9 42 9 54 -30 33 -112 -9 -34 -16 -80 -16 -101 0 -132 2 -127
-77 -203 -55 -52 -73 -75 -71 -92 1 -13 -8 -44 -20 -70 -19 -40 -21 -53 -12
-78 8 -23 7 -36 -2 -50 -17 -28 20 -75 59 -75 40 0 64 47 43 84 -8 14 -24 27
-36 29 -30 4 -37 35 -18 72 13 25 22 30 50 30 48 0 65 33 41 81 l-17 33 41 39
c22 22 40 44 40 49 0 6 11 7 25 4 33 -8 85 40 85 78 0 28 -46 70 -67 62 -8 -3
-17 2 -20 10 -6 16 34 212 46 225 3 4 20 10 37 13 30 7 30 6 51 -56 56 -168
67 -319 29 -409 -21 -50 -111 -127 -164 -141 -45 -11 -63 -31 -44 -50 8 -8 15
-8 25 0 25 21 25 2 1 -86 -14 -51 -24 -114 -24 -154 0 -65 1 -67 39 -97 46
-36 66 -39 81 -10 17 30 6 46 -39 60 -22 6 -42 17 -45 24 -6 16 20 157 42 228
16 49 27 64 84 111 52 43 69 65 82 103 22 63 32 206 17 258 -6 22 -7 43 -2 48
4 4 41 -8 82 -27 41 -20 103 -41 139 -48 59 -12 65 -15 68 -39 4 -38 34 -61
73 -57 26 2 34 9 40 30 11 44 -10 72 -61 80 -86 12 -194 38 -203 47 -18 18 13
43 43 36 27 -6 60 14 60 35 0 5 22 16 49 25 27 9 55 23 61 30 9 11 24 13 51 9
45 -8 89 15 89 46 0 12 13 25 36 36 47 22 68 57 70 115 1 25 7 56 13 67 21 39
12 86 -20 103 -50 26 -88 -51 -50 -102 25 -34 28 -100 5 -123 -31 -32 -51 -37
-94 -24 -46 15 -48 20 -20 55 24 31 25 63 5 103 -19 37 -57 40 -79 8 -21 -30
-20 -56 4 -96 24 -38 25 -67 6 -113 -17 -42 -40 -63 -84 -77 -27 -9 -38 -9
-57 4 -16 11 -34 14 -54 9 -25 -5 -31 -13 -37 -43 -8 -46 -21 -62 -48 -62 -44
0 -125 107 -126 165 0 12 25 41 66 75 120 101 174 209 174 348 0 178 -92 332
-271 459 -43 29 -93 70 -113 90 -31 32 -36 44 -36 84 0 40 -4 51 -26 66 -22
17 -25 24 -19 51 7 32 56 79 108 103 15 7 27 16 27 21 0 4 6 8 13 8 7 0 28 15
45 33 29 30 32 37 22 61 -9 24 -7 32 14 57 53 63 44 84 -49 123 -33 13 -49 15
-58 7 -17 -14 -53 -86 -80 -162 -21 -60 -48 -91 -63 -76 -5 4 0 21 9 36 9 16
17 38 17 48 0 10 7 29 16 41 8 12 12 27 9 32 -10 16 -83 60 -100 60 -16 0 -54
-69 -75 -135 -17 -55 -28 -63 -35 -29 -4 16 -19 65 -33 109 -30 88 -43 98 -95
69z m54 -51 c44 -111 73 -273 49 -273 -5 0 -10 2 -10 4 0 24 -46 218 -57 239
-13 26 -12 57 2 57 3 0 10 -12 16 -27z m445 2 c44 -18 38 -32 -35 -80 -55 -36
-71 -42 -71 -25 0 18 52 120 61 120 6 0 26 -7 45 -15z m-221 -29 c18 -13 18
-15 -4 -72 -59 -153 -81 -222 -81 -261 0 -39 -2 -43 -24 -43 -14 0 -27 3 -29
8 -9 15 12 149 33 212 59 175 65 185 105 156z m-373 -97 c105 -69 158 -134
177 -218 10 -45 5 -53 -27 -44 -16 4 -22 13 -22 32 0 15 -12 50 -26 79 -19 39
-40 61 -85 91 -33 22 -75 46 -94 52 -19 7 -35 18 -35 24 0 11 20 35 29 35 3 0
40 -23 83 -51z m588 -14 c0 -9 -28 -33 -62 -54 -100 -62 -146 -107 -160 -158
-16 -54 -32 -60 -36 -14 -8 77 25 121 133 180 40 22 77 45 80 51 10 16 45 12
45 -5z m-299 -305 l119 0 0 -50 c0 -39 -4 -52 -20 -60 -27 -15 -26 -40 3 -40
12 0 29 4 36 9 11 7 28 -1 60 -28 26 -20 81 -62 123 -94 136 -100 218 -244
218 -380 0 -120 -34 -205 -118 -299 -93 -104 -212 -146 -457 -163 -92 -6 -158
5 -285 49 -61 22 -155 97 -190 153 -59 93 -75 251 -40 389 31 121 91 195 253
316 81 60 92 64 116 49 8 -5 20 -7 28 -4 20 8 16 41 -7 48 -17 5 -20 15 -20
62 l0 56 31 -7 c17 -3 85 -6 150 -6z m969 -850 c0 -20 -5 -30 -15 -30 -10 0
-15 10 -15 30 0 20 5 30 15 30 10 0 15 -10 15 -30z m-176 -56 c18 -47 -11 -76
-34 -33 -9 15 -8 24 1 35 15 18 25 18 33 -2z m-1708 -41 c18 -25 17 -50 -2
-57 -24 -9 -44 12 -44 45 0 34 25 40 46 12z m210 -9 c16 -23 16 -26 1 -41 -15
-15 -18 -15 -37 2 -20 18 -26 45 -13 58 13 14 33 6 49 -19z m1539 -144 c0 -20
-6 -26 -28 -28 -32 -4 -46 20 -26 44 19 24 54 14 54 -16z m-1499 -85 c4 -8 4
-22 0 -30 -7 -19 -36 -8 -36 14 0 32 26 43 36 16z m1251 -11 c8 -22 -18 -37
-36 -20 -7 8 -10 19 -7 25 10 16 36 13 43 -5z m-683 -86 c13 -22 -14 -54 -38
-45 -16 6 -22 48 -9 61 11 11 35 3 47 -16z m846 -103 c15 -18 5 -35 -20 -35
-22 0 -34 15 -26 35 7 19 30 19 46 0z m-545 -40 c0 -25 -4 -30 -25 -30 -21 0
-26 5 -28 33 -3 31 -2 33 25 30 24 -3 28 -8 28 -33z m-857 -17 c18 -18 14 -38
-7 -38 -23 0 -35 15 -27 35 7 18 18 19 34 3z m560 -7 c16 -10 12 -53 -5 -58
-15 -5 -36 34 -29 53 6 16 15 17 34 5z m140 -199 c3 -16 -2 -22 -17 -22 -24 0
-35 15 -27 36 9 23 40 13 44 -14z m-38 -198 c11 -12 11 -18 -2 -31 -19 -18
-38 -10 -38 16 0 33 20 40 40 15z"/>
<path d="M1171 1724 c-39 -50 -13 -154 38 -154 27 0 52 34 58 79 5 35 2 44
-25 71 -37 37 -45 37 -71 4z m59 -44 c0 -13 -7 -20 -20 -20 -13 0 -20 7 -20
20 0 13 7 20 20 20 13 0 20 -7 20 -20z"/>
<path d="M1744 1718 c-18 -34 -15 -98 6 -123 17 -20 64 -19 81 2 21 25 18 107
-5 132 -29 31 -62 27 -82 -11z m64 -36 c2 -14 -2 -22 -12 -22 -19 0 -29 17
-22 36 8 22 30 12 34 -14z"/>
<path d="M1387 1498 c-2 -7 -1 -23 3 -34 25 -66 131 -87 187 -36 17 15 33 36
34 47 5 27 -27 32 -36 5 -4 -12 -22 -29 -41 -38 -33 -15 -37 -15 -68 2 -19 10
-39 29 -45 42 -12 26 -26 31 -34 12z"/>
</g>
</svg>
